<svg width="132" height="23" viewBox="0 0 132 23" fill="none" xmlns="http://www.w3.org/2000/svg">
<path d="M7.512 18.288C6.168 18.288 4.88 18.112 3.648 17.76C2.416 17.392 1.424 16.92 0.672 16.344L1.992 13.416C2.712 13.928 3.56 14.352 4.536 14.688C5.528 15.008 6.528 15.168 7.536 15.168C8.304 15.168 8.92 15.096 9.384 14.952C9.864 14.792 10.216 14.576 10.44 14.304C10.664 14.032 10.776 13.72 10.776 13.368C10.776 12.92 10.6 12.568 10.248 12.312C9.896 12.04 9.432 11.824 8.856 11.664C8.28 11.488 7.64 11.328 6.936 11.184C6.248 11.024 5.552 10.832 4.848 10.608C4.16 10.384 3.528 10.096 2.952 9.744C2.376 9.392 1.904 8.928 1.536 8.352C1.184 7.776 1.008 7.04 1.008 6.144C1.008 5.184 1.264 4.312 1.776 3.528C2.304 2.728 3.088 2.096 4.128 1.632C5.184 1.152 6.504 0.912 8.088 0.912C9.144 0.912 10.184 1.04 11.208 1.296C12.232 1.536 13.136 1.904 13.92 2.4L12.72 5.352C11.936 4.904 11.152 4.576 10.368 4.368C9.584 4.144 8.816 4.032 8.064 4.032C7.312 4.032 6.696 4.12 6.216 4.296C5.736 4.472 5.392 4.704 5.184 4.992C4.976 5.264 4.872 5.584 4.872 5.952C4.872 6.384 5.048 6.736 5.4 7.008C5.752 7.264 6.216 7.472 6.792 7.632C7.368 7.792 8 7.952 8.688 8.112C9.392 8.272 10.088 8.456 10.776 8.664C11.48 8.872 12.12 9.152 12.696 9.504C13.272 9.856 13.736 10.32 14.088 10.896C14.456 11.472 14.64 12.2 14.64 13.08C14.64 14.024 14.376 14.888 13.848 15.672C13.32 16.456 12.528 17.088 11.472 17.568C10.432 18.048 9.112 18.288 7.512 18.288ZM22.3127 18.192C20.7927 18.192 19.6087 17.808 18.7607 17.04C17.9127 16.256 17.4887 15.096 17.4887 13.56V2.232H21.2327V13.512C21.2327 14.056 21.3767 14.48 21.6647 14.784C21.9527 15.072 22.3447 15.216 22.8407 15.216C23.4327 15.216 23.9367 15.056 24.3527 14.736L25.3607 17.376C24.9767 17.648 24.5127 17.856 23.9687 18C23.4407 18.128 22.8887 18.192 22.3127 18.192ZM15.4967 8.256V5.376H24.4487V8.256H15.4967ZM28.86 22.848C28.188 22.848 27.524 22.744 26.868 22.536C26.212 22.328 25.676 22.04 25.26 21.672L26.628 19.008C26.916 19.264 27.244 19.464 27.612 19.608C27.996 19.752 28.372 19.824 28.74 19.824C29.268 19.824 29.684 19.696 29.988 19.44C30.308 19.2 30.596 18.792 30.852 18.216L31.524 16.632L31.812 16.224L36.444 5.088H40.044L34.212 18.792C33.796 19.832 33.316 20.648 32.772 21.24C32.244 21.832 31.652 22.248 30.996 22.488C30.356 22.728 29.644 22.848 28.86 22.848ZM31.068 18.504L25.308 5.088H29.172L33.636 15.888L31.068 18.504ZM41.5718 18V0.191999H45.3158V18H41.5718ZM55.1985 18.192C53.7265 18.192 52.4305 17.904 51.3105 17.328C50.2065 16.752 49.3505 15.968 48.7425 14.976C48.1345 13.968 47.8305 12.824 47.8305 11.544C47.8305 10.248 48.1265 9.104 48.7185 8.112C49.3265 7.104 50.1505 6.32 51.1905 5.76C52.2305 5.184 53.4065 4.896 54.7185 4.896C55.9825 4.896 57.1185 5.168 58.1265 5.712C59.1505 6.24 59.9585 7.008 60.5505 8.016C61.1425 9.008 61.4385 10.2 61.4385 11.592C61.4385 11.736 61.4305 11.904 61.4145 12.096C61.3985 12.272 61.3825 12.44 61.3665 12.6H50.8785V10.416H59.3985L57.9585 11.064C57.9585 10.392 57.8225 9.808 57.5505 9.312C57.2785 8.816 56.9025 8.432 56.4225 8.16C55.9425 7.872 55.3825 7.728 54.7425 7.728C54.1025 7.728 53.5345 7.872 53.0385 8.16C52.5585 8.432 52.1825 8.824 51.9105 9.336C51.6385 9.832 51.5025 10.424 51.5025 11.112V11.688C51.5025 12.392 51.6545 13.016 51.9585 13.56C52.2785 14.088 52.7185 14.496 53.2785 14.784C53.8545 15.056 54.5265 15.192 55.2945 15.192C55.9825 15.192 56.5825 15.088 57.0945 14.88C57.6225 14.672 58.1025 14.36 58.5345 13.944L60.5265 16.104C59.9345 16.776 59.1905 17.296 58.2945 17.664C57.3985 18.016 56.3665 18.192 55.1985 18.192ZM67.7584 18L62.2624 1.2H66.2944L71.0704 16.08H69.0544L74.0464 1.2H77.6464L82.4464 16.08H80.5024L85.3984 1.2H89.1184L83.6224 18H79.4464L75.1984 4.944H76.3024L71.9344 18H67.7584ZM97.9839 18V15.48L97.7439 14.928V10.416C97.7439 9.616 97.4959 8.992 96.9999 8.544C96.5199 8.096 95.7759 7.872 94.7679 7.872C94.0799 7.872 93.3999 7.984 92.7279 8.208C92.0719 8.416 91.5119 8.704 91.0479 9.072L89.7039 6.456C90.4079 5.96 91.2559 5.576 92.2479 5.304C93.2399 5.032 94.2479 4.896 95.2719 4.896C97.2399 4.896 98.7679 5.36 99.8559 6.288C100.944 7.216 101.488 8.664 101.488 10.632V18H97.9839ZM94.0479 18.192C93.0399 18.192 92.1759 18.024 91.4559 17.688C90.7359 17.336 90.1839 16.864 89.7999 16.272C89.4159 15.68 89.2239 15.016 89.2239 14.28C89.2239 13.512 89.4079 12.84 89.7759 12.264C90.1599 11.688 90.7599 11.24 91.5759 10.92C92.3919 10.584 93.4559 10.416 94.7679 10.416H98.1999V12.6H95.1759C94.2959 12.6 93.6879 12.744 93.3519 13.032C93.0319 13.32 92.8719 13.68 92.8719 14.112C92.8719 14.592 93.0559 14.976 93.4239 15.264C93.8079 15.536 94.3279 15.672 94.9839 15.672C95.6079 15.672 96.1679 15.528 96.6639 15.24C97.1599 14.936 97.5199 14.496 97.7439 13.92L98.3199 15.648C98.0479 16.48 97.5519 17.112 96.8319 17.544C96.1119 17.976 95.1839 18.192 94.0479 18.192ZM108.146 18L102.722 5.088H106.586L111.098 16.2H109.178L113.858 5.088H117.458L112.01 18H108.146ZM125.042 18.192C123.57 18.192 122.274 17.904 121.154 17.328C120.05 16.752 119.194 15.968 118.586 14.976C117.978 13.968 117.674 12.824 117.674 11.544C117.674 10.248 117.97 9.104 118.562 8.112C119.17 7.104 119.994 6.32 121.034 5.76C122.074 5.184 123.25 4.896 124.562 4.896C125.826 4.896 126.962 5.168 127.97 5.712C128.994 6.24 129.802 7.008 130.394 8.016C130.986 9.008 131.282 10.2 131.282 11.592C131.282 11.736 131.274 11.904 131.258 12.096C131.242 12.272 131.226 12.44 131.21 12.6H120.722V10.416H129.242L127.802 11.064C127.802 10.392 127.666 9.808 127.394 9.312C127.122 8.816 126.746 8.432 126.266 8.16C125.786 7.872 125.226 7.728 124.586 7.728C123.946 7.728 123.378 7.872 122.882 8.16C122.402 8.432 122.026 8.824 121.754 9.336C121.482 9.832 121.346 10.424 121.346 11.112V11.688C121.346 12.392 121.498 13.016 121.802 13.56C122.122 14.088 122.562 14.496 123.122 14.784C123.698 15.056 124.37 15.192 125.138 15.192C125.826 15.192 126.426 15.088 126.938 14.88C127.466 14.672 127.946 14.36 128.378 13.944L130.37 16.104C129.778 16.776 129.034 17.296 128.138 17.664C127.242 18.016 126.21 18.192 125.042 18.192Z" fill="black"/>
</svg>
