<svg width="735" height="153" viewBox="0 0 735 153" fill="none" xmlns="http://www.w3.org/2000/svg">
<path d="M63.53 150L0.11 2.99999H36.86L92.3 133.2H70.67L126.95 2.99999H160.76L97.13 150H63.53ZM204.324 62.22H275.094V88.68H204.324V62.22ZM206.844 122.7H286.854V150H173.034V2.99999H284.124V30.3H206.844V122.7ZM313.922 150V2.99999H347.942V122.28H421.652V150H313.922ZM474.712 150L411.292 2.99999H448.042L503.482 133.2H481.852L538.132 2.99999H571.942L508.312 150H474.712ZM653.975 152.52C642.355 152.52 631.575 150.63 621.635 146.85C611.835 143.07 603.295 137.75 596.015 130.89C588.875 124.03 583.275 115.98 579.215 106.74C575.295 97.5 573.335 87.42 573.335 76.5C573.335 65.58 575.295 55.5 579.215 46.26C583.275 37.02 588.945 28.97 596.225 22.11C603.505 15.25 612.045 9.92999 621.845 6.14999C631.645 2.36999 642.285 0.479997 653.765 0.479997C665.385 0.479997 676.025 2.36999 685.685 6.14999C695.485 9.92999 703.955 15.25 711.095 22.11C718.375 28.97 724.045 37.02 728.105 46.26C732.165 55.36 734.195 65.44 734.195 76.5C734.195 87.42 732.165 97.57 728.105 106.95C724.045 116.19 718.375 124.24 711.095 131.1C703.955 137.82 695.485 143.07 685.685 146.85C676.025 150.63 665.455 152.52 653.975 152.52ZM653.765 123.54C660.345 123.54 666.365 122.42 671.825 120.18C677.425 117.94 682.325 114.72 686.525 110.52C690.725 106.32 693.945 101.35 696.185 95.61C698.565 89.87 699.755 83.5 699.755 76.5C699.755 69.5 698.565 63.13 696.185 57.39C693.945 51.65 690.725 46.68 686.525 42.48C682.465 38.28 677.635 35.06 672.035 32.82C666.435 30.58 660.345 29.46 653.765 29.46C647.185 29.46 641.095 30.58 635.495 32.82C630.035 35.06 625.205 38.28 621.005 42.48C616.805 46.68 613.515 51.65 611.135 57.39C608.895 63.13 607.775 69.5 607.775 76.5C607.775 83.36 608.895 89.73 611.135 95.61C613.515 101.35 616.735 106.32 620.795 110.52C624.995 114.72 629.895 117.94 635.495 120.18C641.095 122.42 647.185 123.54 653.765 123.54Z" fill="black"/>
</svg>
